<?xml version="1.0" encoding="utf-8"?>
<!-- Generator: Adobe Illustrator 25.3.1, SVG Export Plug-In . SVG Version: 6.00 Build 0)  -->
<svg version="1.1" id="Camada_1" xmlns="http://www.w3.org/2000/svg" xmlns:xlink="http://www.w3.org/1999/xlink" x="0px" y="0px"
	 viewBox="0 0 554 674" style="enable-background:new 0 0 554 674;" xml:space="preserve">
<style type="text/css">
	.st0{display:none;}
	.st1{display:inline;}
	.st2{fill-rule:evenodd;clip-rule:evenodd;fill:#F5C2E1;}
	.st3{fill-rule:evenodd;clip-rule:evenodd;fill:#F3C888;}
	.st4{fill-rule:evenodd;clip-rule:evenodd;fill:#FFEFF4;}
	.st5{fill:none;stroke:#664E2B;stroke-width:8;stroke-miterlimit:10;}
	.st6{fill:none;stroke:#703F59;stroke-width:8;stroke-miterlimit:10;}
	.st7{opacity:0.1;}
	.st8{fill-rule:evenodd;clip-rule:evenodd;}
	.st9{fill:#664E2B;}
	.st10{fill:#703F59;}
</style>
<g id="base_x5F_" class="st0">
	<g class="st1">
		<ellipse class="st2" cx="344" cy="523.4" rx="106.2" ry="33.2"/>
		<g>
			<g>
				<polygon class="st3" points="132.2,556 69.4,175 296.2,120.5 248.8,575.4 				"/>
				<ellipse class="st3" cx="187.1" cy="630.6" rx="106.2" ry="33.2"/>
			</g>
			<g>
				<polygon class="st4" points="95.7,220.2 106.4,288.7 147.4,272.8 149.3,200.7 				"/>
				<polygon class="st4" points="175.8,207.7 182.1,276.7 230.3,265.9 236,184.2 				"/>
				<polygon class="st4" points="108.1,321 117,382.5 155.7,372.8 150.2,308.4 				"/>
				<polygon class="st4" points="120.5,420.6 128.5,484.9 169.7,473.8 164.6,408.3 				"/>
				<polygon class="st4" points="181.6,304.8 184.6,371.2 229.2,363.2 236,291 				"/>
				<polygon class="st4" points="187.1,409.5 189,473.9 223.6,468.7 229.5,396.9 				"/>
			</g>
			<g>
				<polygon class="st5" points="132.2,556 69.4,175 296.2,120.5 248.8,575.4 				"/>
				<polygon class="st5" points="102.1,208.9 114.6,272.9 154.4,265.5 149.3,200.7 				"/>
				<polygon class="st5" points="182.8,194.1 188.8,259.2 237.3,252.2 246.2,181.2 				"/>
				<polygon class="st5" points="111.2,308.3 123.7,372.2 163.5,364.8 158.4,300.1 				"/>
				<polygon class="st5" points="126.4,408.9 138.1,469.1 175.5,462.1 170.8,401.2 				"/>
				<polygon class="st5" points="188.9,293.5 194.4,358.6 239.4,355.9 242.6,281.8 				"/>
				<polygon class="st5" points="193.5,398.6 198.6,459.9 230.1,457.9 237.8,388.7 				"/>
			</g>
		</g>
		<g>
			<g>
				<polygon class="st2" points="421.8,445.7 484.6,64.7 257.8,10.2 305.2,465 				"/>
			</g>
			<g>
				<polygon class="st4" points="458.3,109.9 447.6,178.4 406.6,162.5 404.7,90.4 				"/>
				<polygon class="st4" points="378.2,97.4 371.9,166.3 323.7,155.5 318,73.9 				"/>
				<polygon class="st4" points="445.9,210.7 437,272.2 398.3,262.5 403.8,198.1 				"/>
				<polygon class="st4" points="433.5,310.3 425.5,374.5 384.3,363.5 389.4,297.9 				"/>
				<polygon class="st4" points="372.4,194.5 369.4,260.9 324.8,252.9 318,180.7 				"/>
				<polygon class="st4" points="366.9,299.1 365,363.6 330.4,358.4 324.5,286.6 				"/>
			</g>
			<g>
				<polygon class="st6" points="421.8,445.7 484.6,64.7 257.8,10.2 305.2,465 				"/>
				<polygon class="st6" points="451.9,98.6 439.4,162.6 399.6,155.1 404.7,90.4 				"/>
				<polygon class="st6" points="371.2,83.8 365.2,148.9 316.7,141.9 307.8,70.9 				"/>
				<polygon class="st6" points="442.8,198 430.3,261.9 390.5,254.5 395.6,189.8 				"/>
				<polygon class="st6" points="427.6,298.6 415.9,358.8 378.5,351.8 383.2,290.9 				"/>
				<polygon class="st6" points="365.1,183.1 359.6,248.3 314.6,245.5 311.4,171.5 				"/>
				<polygon class="st6" points="360.5,288.3 355.4,349.6 323.9,347.6 316.2,278.4 				"/>
			</g>
		</g>
	</g>
</g>
<g id="exp_x5F_">
	<g>
		<g class="st7">
			<ellipse class="st8" cx="344" cy="523.4" rx="106.2" ry="33.2"/>
		</g>
		<g>
			<g>
				<g>
					<polygon class="st3" points="132.2,556 69.4,175 296.2,120.5 248.8,575.4 					"/>
				</g>
				<g class="st7">
					<ellipse class="st8" cx="187.1" cy="630.6" rx="106.2" ry="33.2"/>
				</g>
			</g>
			<g>
				<g>
					<polygon class="st4" points="95.7,220.2 106.4,288.7 147.4,272.8 149.3,200.7 					"/>
				</g>
				<g>
					<polygon class="st4" points="175.8,207.7 182.1,276.7 230.3,265.9 236,184.2 					"/>
				</g>
				<g>
					<polygon class="st4" points="108.1,321 117,382.5 155.7,372.8 150.2,308.4 					"/>
				</g>
				<g>
					<polygon class="st4" points="120.5,420.6 128.5,484.9 169.7,473.8 164.6,408.3 					"/>
				</g>
				<g>
					<polygon class="st4" points="181.6,304.8 184.6,371.2 229.2,363.2 236,291 					"/>
				</g>
				<g>
					<polygon class="st4" points="187.1,409.5 189,473.9 223.6,468.7 229.5,396.9 					"/>
				</g>
			</g>
			<g>
				<g>
					<path class="st9" d="M252.4,580l-123.7-20.5L64.9,172l235.9-56.7L252.4,580z M135.7,552.5l109.6,18.2l46.4-445L74,178
						L135.7,552.5z"/>
				</g>
				<g>
					<path class="st9" d="M111.5,277.5l-14-71.9L153,196l5.7,72.7L111.5,277.5z M106.8,212.2l10.9,56.1l32.3-6l-4.4-56.8
						L106.8,212.2z"/>
				</g>
				<g>
					<path class="st9" d="M185.2,263.8l-6.7-72.9l72.4-14.7l-10,79.5L185.2,263.8z M187.1,197.3l5.2,57.4l41.3-6l7.8-62.4
						L187.1,197.3z"/>
				</g>
				<g>
					<path class="st9" d="M120.5,376.9l-14-71.9l55.5-9.6l5.7,72.7L120.5,376.9z M115.9,311.5l10.9,56.1l32.3-6l-4.4-56.8
						L115.9,311.5z"/>
				</g>
				<g>
					<path class="st9" d="M135,473.7l-13.3-68.1l52.7-9.2l5.4,68.9L135,473.7z M131.1,412.2l10.2,52.3l30-5.6l-4.1-52.9L131.1,412.2
						z"/>
				</g>
				<g>
					<path class="st9" d="M190.8,362.8l-6.2-72.5l62.3-13.5l-3.6,82.8L190.8,362.8z M193.1,296.6l4.9,57.7l37.5-2.3l2.8-65.2
						L193.1,296.6z"/>
				</g>
				<g>
					<path class="st9" d="M194.9,464.1l-5.7-68.6l53.2-11.9l-8.8,78.1L194.9,464.1z M197.8,401.8l4.5,53.9l24.2-1.5l6.8-60.3
						L197.8,401.8z"/>
				</g>
			</g>
		</g>
		<g>
			<g>
				<g>
					<polygon class="st2" points="421.8,445.7 484.6,64.7 257.8,10.2 305.2,465 					"/>
				</g>
			</g>
			<g>
				<g>
					<polygon class="st4" points="458.3,109.9 447.6,178.4 406.6,162.5 404.7,90.4 					"/>
				</g>
				<g>
					<polygon class="st4" points="378.2,97.4 371.9,166.3 323.7,155.5 318,73.9 					"/>
				</g>
				<g>
					<polygon class="st4" points="445.9,210.7 437,272.2 398.3,262.5 403.8,198.1 					"/>
				</g>
				<g>
					<polygon class="st4" points="433.5,310.3 425.5,374.5 384.3,363.5 389.4,297.9 					"/>
				</g>
				<g>
					<polygon class="st4" points="372.4,194.5 369.4,260.9 324.8,252.9 318,180.7 					"/>
				</g>
				<g>
					<polygon class="st4" points="366.9,299.1 365,363.6 330.4,358.4 324.5,286.6 					"/>
				</g>
			</g>
			<g>
				<g>
					<path class="st10" d="M301.6,469.7L253.2,5l235.9,56.7l-0.6,3.7l-63.2,383.8L301.6,469.7z M262.3,15.4l46.4,445l109.6-18.2
						L480,67.7L262.3,15.4z"/>
				</g>
				<g>
					<path class="st10" d="M442.5,167.2l-47.2-8.8l5.7-72.7l55.5,9.6L442.5,167.2z M403.9,151.9l32.3,6l10.9-56.1l-38.8-6.7
						L403.9,151.9z"/>
				</g>
				<g>
					<path class="st10" d="M368.8,153.5l-55.7-8.1l-10-79.5l72.4,14.7L368.8,153.5z M320.3,138.4l41.3,6l5.2-57.4l-54.4-11
						L320.3,138.4z"/>
				</g>
				<g>
					<path class="st10" d="M433.5,266.6l-47.2-8.8l5.7-72.7l55.5,9.6L433.5,266.6z M394.8,251.2l32.3,6l10.9-56.1l-38.8-6.7
						L394.8,251.2z"/>
				</g>
				<g>
					<path class="st10" d="M419,363.4l-44.8-8.4l5.4-68.9l52.7,9.2L419,363.4z M382.7,348.5l30,5.6l10.2-52.3l-36-6.3L382.7,348.5z"
						/>
				</g>
				<g>
					<path class="st10" d="M363.2,252.5l-52.4-3.2l-3.6-82.8l62.3,13.5L363.2,252.5z M318.5,241.8l37.5,2.3l4.9-57.7l-45.2-9.8
						L318.5,241.8z"/>
				</g>
				<g>
					<path class="st10" d="M359.1,353.8l-38.7-2.4l-8.8-78.1l53.2,11.9L359.1,353.8z M327.5,343.8l24.2,1.5l4.5-53.9l-35.4-7.9
						L327.5,343.8z"/>
				</g>
			</g>
		</g>
	</g>
</g>
</svg>
