<?xml version="1.0" encoding="utf-8"?>
<!-- Generator: Adobe Illustrator 25.3.1, SVG Export Plug-In . SVG Version: 6.00 Build 0)  -->
<svg version="1.1" id="Camada_1" xmlns="http://www.w3.org/2000/svg" xmlns:xlink="http://www.w3.org/1999/xlink" x="0px" y="0px"
	 viewBox="0 0 240 74" style="enable-background:new 0 0 240 74;" xml:space="preserve">
<style type="text/css">
	.st0{fill:#FDFFFA;}
</style>
<g>
	<g>
		<path class="st0" d="M104.7,64.9c-5.1-2.8-9-6.6-11.9-11.5C90,48.5,88.5,43.1,88.5,37s1.4-11.5,4.3-16.4
			c2.8-4.9,6.8-8.7,11.9-11.5s10.7-4.2,17-4.2c6.2,0,11.9,1.4,16.9,4.1c5,2.8,9,6.6,11.8,11.5c2.9,4.9,4.3,10.4,4.3,16.4
			c0,6.1-1.4,11.5-4.3,16.4c-2.9,4.9-6.8,8.7-11.8,11.5c-5,2.8-10.6,4.1-16.9,4.1C115.4,69,109.8,67.6,104.7,64.9z M135.2,59.7
			c4-2.3,7.2-5.4,9.5-9.4s3.4-8.4,3.4-13.4c0-4.9-1.1-9.4-3.4-13.4c-2.3-4-5.4-7.1-9.5-9.4c-4-2.3-8.5-3.4-13.5-3.4
			s-9.5,1.1-13.5,3.4c-4.1,2.3-7.2,5.4-9.5,9.4s-3.5,8.4-3.5,13.4c0,4.9,1.2,9.4,3.5,13.4s5.5,7.1,9.5,9.4c4.1,2.3,8.6,3.4,13.5,3.4
			C126.6,63.1,131.1,62,135.2,59.7z"/>
		<g>
			<g>
				<path class="st0" d="M151.6,72.7l-3.4-3.4c-1.6-1.6-1.6-4.2,0-5.8l0,0c1.6-1.6,4.2-1.6,5.8,0l3.4,3.4c1.6,1.6,1.6,4.2,0,5.8l0,0
					C155.8,74.3,153.2,74.3,151.6,72.7z"/>
				<path class="st0" d="M89.4,10.5L86,7.1c-1.6-1.6-1.6-4.2,0-5.8l0,0c1.6-1.6,4.2-1.6,5.8,0l3.4,3.4c1.6,1.6,1.6,4.2,0,5.8l0,0
					C93.6,12.1,91,12.1,89.4,10.5z"/>
			</g>
		</g>
		<g>
			<path class="st0" d="M117.4,48V26c0-2.3,1.8-4.1,4.1-4.1l0,0c2.3,0,4.1,1.8,4.1,4.1v22.1c0,2.3-1.8,4.1-4.1,4.1l0,0
				C119.2,52.2,117.4,50.3,117.4,48z"/>
			<path class="st0" d="M132.6,41.1h-22.1c-2.3,0-4.1-1.8-4.1-4.1l0,0c0-2.3,1.8-4.1,4.1-4.1h22.1c2.3,0,4.1,1.8,4.1,4.1l0,0
				C136.7,39.3,134.8,41.1,132.6,41.1z"/>
		</g>
	</g>
	<path class="st0" d="M15.7,5.8h25.7c6.7,0,12.5,1.3,17.6,4s9.1,6.4,11.9,11.2s4.2,10.2,4.2,16.3s-1.4,11.6-4.2,16.3
		c-2.8,4.8-6.8,8.5-11.9,11.2s-11,4-17.6,4H15.7V5.8z M41,63.1c5.5,0,10.4-1.1,14.5-3.3s7.4-5.2,9.6-9.1c2.3-3.9,3.4-8.3,3.4-13.4
		c0-5-1.1-9.5-3.4-13.4c-2.3-3.9-5.5-6.9-9.6-9.1s-9-3.3-14.5-3.3H22.4V63H41V63.1z"/>
	<path class="st0" d="M184.3,65.3c-5-2.8-8.9-6.6-11.8-11.5c-2.9-4.9-4.3-10.4-4.3-16.4c0-6.1,1.4-11.5,4.3-16.4
		c2.8-4.9,6.8-8.7,11.8-11.5s10.7-4.1,16.9-4.1c4.7,0,9,0.8,13,2.3c4,1.6,7.3,3.8,10.1,6.8l-4.2,4.2c-4.9-5-11.1-7.5-18.6-7.5
		c-5,0-9.5,1.1-13.6,3.4s-7.3,5.4-9.6,9.4s-3.5,8.4-3.5,13.3s1.2,9.4,3.5,13.3c2.3,4,5.5,7.1,9.6,9.4c4.1,2.3,8.6,3.4,13.6,3.4
		c7.6,0,13.8-2.5,18.6-7.6l4.2,4.2c-2.8,3-6.1,5.3-10.1,6.9s-8.3,2.4-13,2.4C194.9,69.4,189.3,68,184.3,65.3z"/>
</g>
</svg>
