<?xml version="1.0" encoding="utf-8"?>
<!-- Generator: Adobe Illustrator 25.3.1, SVG Export Plug-In . SVG Version: 6.00 Build 0)  -->
<svg version="1.1" id="Camada_1" xmlns="http://www.w3.org/2000/svg" xmlns:xlink="http://www.w3.org/1999/xlink" x="0px" y="0px"
	 viewBox="0 0 64 72" style="enable-background:new 0 0 64 72;" xml:space="preserve">
<style type="text/css">
	.st0{fill:#FDFFFA;}
	.st1{fill:#00EBF7;}
</style>
<g>
	<path class="st0" d="M17.3,60c-4.4-2.4-7.8-5.7-10.3-9.9s-3.7-9-3.7-14.2s1.2-10,3.7-14.2s5.9-7.5,10.3-9.9S26.6,8.2,32,8.2
		s10.3,1.2,14.6,3.6s7.8,5.7,10.2,9.9c2.5,4.2,3.7,9,3.7,14.2s-1.2,10-3.7,14.2s-5.9,7.5-10.2,9.9c-4.3,2.4-9.2,3.6-14.6,3.6
		C26.6,63.6,21.7,62.4,17.3,60z M43.6,55.6c3.5-1.9,6.2-4.6,8.2-8.1c2-3.5,3-7.3,3-11.6s-1-8.1-3-11.6s-4.7-6.2-8.2-8.1
		s-7.4-2.9-11.7-2.9s-8.2,1-11.7,2.9c-3.5,2-6.2,4.7-8.2,8.1c-2,3.5-3,7.3-3,11.6s1,8.1,3,11.6s4.8,6.2,8.3,8.1
		c3.5,1.9,7.4,2.9,11.7,2.9S40.2,57.5,43.6,55.6z"/>
	<g>
		<g>
			<path class="st1" d="M57.9,66.8L55,63.9c-1.4-1.4-1.4-3.6,0-5l0,0c1.4-1.4,3.6-1.4,5,0l2.9,2.9c1.4,1.4,1.4,3.6,0,5l0,0
				C61.5,68.2,59.3,68.2,57.9,66.8z"/>
			<path class="st1" d="M4,13l-2.9-2.9c-1.4-1.4-1.4-3.6,0-5l0,0c1.4-1.4,3.6-1.4,5,0L9,7.9c1.4,1.4,1.4,3.6,0,5l0,0
				C7.6,14.4,5.4,14.4,4,13z"/>
		</g>
	</g>
	<g>
		<path class="st0" d="M28.3,45.7V26.1c0-1.8,1.5-3.3,3.3-3.3h0.5c1.8,0,3.3,1.5,3.3,3.3v19.6c0,1.8-1.5,3.3-3.3,3.3h-0.5
			C29.8,49,28.3,47.5,28.3,45.7z"/>
		<path class="st0" d="M41.6,39.5H22c-1.8,0-3.3-1.5-3.3-3.3v-0.5c0-1.8,1.5-3.3,3.3-3.3h19.6c1.8,0,3.3,1.5,3.3,3.3v0.5
			C45,38,43.5,39.5,41.6,39.5z"/>
	</g>
</g>
</svg>
