<?xml version="1.0" encoding="utf-8"?>
<!-- Generator: Adobe Illustrator 25.3.1, SVG Export Plug-In . SVG Version: 6.00 Build 0)  -->
<svg version="1.1" id="Camada_1" xmlns="http://www.w3.org/2000/svg" xmlns:xlink="http://www.w3.org/1999/xlink" x="0px" y="0px"
	 viewBox="0 0 399 488" style="enable-background:new 0 0 399 488;" xml:space="preserve">
<style type="text/css">
	.st0{clip-path:url(#SVGID_2_);}
	.st1{opacity:0.1;enable-background:new    ;}
	.st2{fill:#FDFFFA;}
	.st3{clip-path:url(#SVGID_2_);fill:#FDFFFA;}
	.st4{fill:#00EBF7;}
</style>
<g>
	<defs>
		<rect id="SVGID_1_" width="399" height="488"/>
	</defs>
	<clipPath id="SVGID_2_">
		<use xlink:href="#SVGID_1_"  style="overflow:visible;"/>
	</clipPath>
	<g class="st0">
		<path class="st1" d="M199,487.4c90,0,163-16.1,163-36c0-19.9-72.9-36-163-36s-163,16.1-163,36C36.1,471.3,109,487.4,199,487.4z"/>
		<path class="st2" d="M392,130.3c-5.6-19.3-14.7-37.6-26.8-53.7c-12.3-16.4-27.1-30.8-43.9-42.4C304,22.3,285,13.2,265.1,7.3
			c-20-5.7-40.9-8.1-61.6-7.2c-18.2,1-36.2,4-53.6,9.1c-17.9,5.3-35,12.6-51.1,21.8c-16.1,9.2-31,20.4-44.2,33.5
			C41.2,77.7,30,92.7,21.1,109.1c-9.4,17.1-15.6,35.6-18.7,54.7c-3.4,21.1-3,42.6,0.6,63.6c3.7,21.1,11.3,41.3,21.9,60
			c10.9,19.5,24.7,37.2,39.7,53.6c15.8,17.2,33,33.2,50.9,48.3c18,15.3,36.5,29.8,55.4,44.2c8.6,6.7,17.4,13.2,26,19.9
			c0.3,0.5,1,0.6,1.4,0.8c0.6,0,1.1-0.2,1.6-0.5c18.5-13.4,36.9-27.3,54.6-41.8c17.4-14,33.8-29.2,49.5-45.1
			c15.3-15.8,29.4-32.7,42-50.9c12.8-18.3,23.5-38,32.1-58.5c8.8-20.9,16.3-43.4,19-66C399.3,170.8,397.7,150.1,392,130.3z
			 M373,192.7c-2.4,19.9-9,39.6-16.7,58c-7.6,18.1-17,35.3-28.2,51.4c-11.1,16-23.4,30.8-36.9,44.7c-13.7,14-28.2,27.3-43.5,39.6
			c-15.6,12.7-31.7,24.9-47.9,36.7c-0.4,0.3-0.8,0.4-1.4,0.4c-0.4-0.1-1-0.3-1.3-0.7c-7.6-5.9-15.3-11.6-22.9-17.5
			c-16.5-12.6-32.8-25.4-48.6-38.8C110,353.3,94.9,339.2,81,324.1c-13.2-14.4-25.4-30-34.9-47.1c-9.3-16.4-16-34.2-19.2-52.7
			c-3.2-18.5-3.5-37.4-0.6-55.9c2.7-16.8,8.1-33.1,16.4-48.1c7.9-14.4,17.7-27.6,29.4-39.1C83.8,69.9,96.8,60,111,51.9
			c14.2-8.1,29.2-14.6,44.9-19.2c15.3-4.5,31.1-7.1,47.1-8c18.2-0.8,36.6,1.3,54.1,6.3c17.5,5.2,34.2,13.2,49.3,23.5
			c14.7,10.2,27.8,22.8,38.6,37.3c10.7,14.1,18.6,30.3,23.6,47.2C373.6,156.4,375,174.6,373,192.7z"/>
	</g>
	<path class="st3" d="M274.4,178.1h-42.5v-42.5c0-13.9-11.3-25.2-25.2-25.2s-25.2,11.3-25.2,25.2v42.5h-42.5
		c-13.9,0-25.2,11.3-25.2,25.2c0,13.9,11.3,25.2,25.2,25.2h42.5v42.5c0,13.9,11.3,25.2,25.2,25.2h0c13.9,0,25.2-11.3,25.2-25.2
		v-42.5h42.5c13.9,0,25.2-11.3,25.2-25.2C299.6,189.4,288.3,178.1,274.4,178.1z"/>
	<g class="st0">
		<g>
			<path class="st4" d="M121.2,141.9l-16.1-16.1c-7.7-7.7-7.7-20.1,0-27.8l0,0c7.7-7.7,20.1-7.7,27.8,0l16.1,16.1
				c7.7,7.7,7.7,20.1,0,27.8l0,0C141.4,149.5,128.9,149.5,121.2,141.9z"/>
		</g>
	</g>
</g>
</svg>
